<?xml version="1.0" encoding="utf-8" standalone="no"?>
<!DOCTYPE svg PUBLIC "-//W3C//DTD SVG 1.1//EN" "http://www.w3.org/Graphics/SVG/1.1/DTD/svg11.dtd">

<svg width="216mm" height="279mm" viewBox="0 0 216 279" xmlns="http://www.w3.org/2000/svg" xmlns:xlink="http://www.w3.org/1999/xlink" version="1.1" style="stroke:black; fill:none; stroke-width:0.5pt; stroke-linejoin:round; text-anchor:middle" font-family="Helvetica, Arial, FreeSans, Sans, sans, sans-serif">

<g>

<rect x="18.0" y="4.5" width="30.0" height="30.0" fill="black" stroke="none" />

<rect x="18.0" y="64.5" width="30.0" height="30.0" fill="black" stroke="none" />

<rect x="18.0" y="124.5" width="30.0" height="30.0" fill="black" stroke="none" />

<rect x="18.0" y="184.5" width="30.0" height="30.0" fill="black" stroke="none" />

<rect x="18.0" y="244.5" width="30.0" height="30.0" fill="black" stroke="none" />

<rect x="48.0" y="34.5" width="30.0" height="30.0" fill="black" stroke="none" />

<rect x="48.0" y="94.5" width="30.0" height="30.0" fill="black" stroke="none" />

<rect x="48.0" y="154.5" width="30.0" height="30.0" fill="black" stroke="none" />

<rect x="48.0" y="214.5" width="30.0" height="30.0" fill="black" stroke="none" />

<rect x="78.0" y="4.5" width="30.0" height="30.0" fill="black" stroke="none" />

<rect x="78.0" y="64.5" width="30.0" height="30.0" fill="black" stroke="none" />

<rect x="78.0" y="124.5" width="30.0" height="30.0" fill="black" stroke="none" />

<rect x="78.0" y="184.5" width="30.0" height="30.0" fill="black" stroke="none" />

<rect x="78.0" y="244.5" width="30.0" height="30.0" fill="black" stroke="none" />

<rect x="108.0" y="34.5" width="30.0" height="30.0" fill="black" stroke="none" />

<rect x="108.0" y="94.5" width="30.0" height="30.0" fill="black" stroke="none" />

<rect x="108.0" y="154.5" width="30.0" height="30.0" fill="black" stroke="none" />

<rect x="108.0" y="214.5" width="30.0" height="30.0" fill="black" stroke="none" />

<rect x="138.0" y="4.5" width="30.0" height="30.0" fill="black" stroke="none" />

<rect x="138.0" y="64.5" width="30.0" height="30.0" fill="black" stroke="none" />

<rect x="138.0" y="124.5" width="30.0" height="30.0" fill="black" stroke="none" />

<rect x="138.0" y="184.5" width="30.0" height="30.0" fill="black" stroke="none" />

<rect x="138.0" y="244.5" width="30.0" height="30.0" fill="black" stroke="none" />

<rect x="168.0" y="34.5" width="30.0" height="30.0" fill="black" stroke="none" />

<rect x="168.0" y="94.5" width="30.0" height="30.0" fill="black" stroke="none" />

<rect x="168.0" y="154.5" width="30.0" height="30.0" fill="black" stroke="none" />

<rect x="168.0" y="214.5" width="30.0" height="30.0" fill="black" stroke="none" />

</g>

</svg>

